<svg xmlns="http://www.w3.org/2000/svg" xmlns:xlink="http://www.w3.org/1999/xlink" data-name="Layer 1" viewBox="0 0 638.17 595.73" id="mind-map"><defs><linearGradient id="e" x1="285.68" x2="408.81" y1="341.66" y2="341.66" gradientUnits="userSpaceOnUse"><stop offset="0" stop-color="#183866"></stop><stop offset="1" stop-color="#1a7fc1"></stop></linearGradient><linearGradient id="a" x1="468.24" x2="472.06" y1="16.61" y2="159.14" gradientUnits="userSpaceOnUse"><stop offset="0" stop-color="#fff" stop-opacity="0"></stop><stop offset=".06" stop-color="#fff" stop-opacity=".13"></stop><stop offset=".16" stop-color="#fff" stop-opacity=".33"></stop><stop offset=".26" stop-color="#fff" stop-opacity=".51"></stop><stop offset=".37" stop-color="#fff" stop-opacity=".66"></stop><stop offset=".48" stop-color="#fff" stop-opacity=".79"></stop><stop offset=".59" stop-color="#fff" stop-opacity=".88"></stop><stop offset=".71" stop-color="#fff" stop-opacity=".95"></stop><stop offset=".84" stop-color="#fff" stop-opacity=".99"></stop><stop offset="1" stop-color="#fff"></stop></linearGradient><linearGradient id="b" x1="320.56" x2="350.61" y1="287.96" y2="287.96" gradientUnits="userSpaceOnUse"><stop offset="0" stop-color="#ecc4d7"></stop><stop offset=".42" stop-color="#efd4d1"></stop><stop offset="1" stop-color="#f2eac9"></stop></linearGradient><linearGradient id="f" x1="387.82" x2="309.5" y1="461.74" y2="318.57" xlink:href="#a"></linearGradient><linearGradient id="g" x1="270.66" x2="312.32" y1="389.87" y2="389.87" xlink:href="#b"></linearGradient><linearGradient id="h" x1="358.96" x2="397.02" y1="393.57" y2="393.57" xlink:href="#b"></linearGradient><linearGradient id="c" x1="322.54" x2="343.54" y1="561.68" y2="688.33" gradientUnits="userSpaceOnUse"><stop offset="0" stop-opacity="0"></stop><stop offset=".08" stop-opacity=".19"></stop><stop offset=".99"></stop></linearGradient><linearGradient id="i" x1="362.89" x2="383.89" y1="554.99" y2="681.64" xlink:href="#c"></linearGradient><linearGradient id="d" x1="82.77" x2="83.42" y1="24.32" y2="54.39" gradientUnits="userSpaceOnUse"><stop offset="0" stop-color="#97eafd"></stop><stop offset="1" stop-color="#e7faff"></stop></linearGradient><linearGradient id="j" x1="103.44" x2="104.09" y1="23.87" y2="53.94" xlink:href="#d"></linearGradient><linearGradient id="k" x1="124.1" x2="124.76" y1="23.42" y2="53.49" xlink:href="#d"></linearGradient><linearGradient id="l" x1="326.79" x2="331.92" y1="577.09" y2="685.31" xlink:href="#c"></linearGradient><linearGradient id="m" x1="368.16" x2="373.3" y1="575.13" y2="683.35" xlink:href="#c"></linearGradient></defs><path fill="#68e1fd" d="M542.14 430.17c-1.12 18.75 6.68 37 7 55.78.52 27-15.88 53.59-40.23 65.25-41.66 19.95-141.16 12.42-160.52 17.55-59.35 15.73-155.22 3.46-215.56 5-13.59.35-22.39 1.82-29.22-.16-6.82-2-11.68-7.41-17.38-20.85-10.28-24.19-10.15-55.93-5.88-81.28 2.57-15.24 6.9-32.07-1.22-45.22-5.47-8.84-15.34-13.72-24-19.48-30.99-20.59-49.79-56.85-54.07-93.89s4.76-74.68 20.4-108.52c5.49-11.85 11.87-23.47 20.77-33 14.43-15.5 34.3-24.48 52.38-35.48a248.8 248.8 0 0 0 62.46-54.08c14.07-17 26-36.07 42.42-50.83 48.87-43.85 128.44-38.14 182.77-1.27 35.48 24.05 63.36 59.48 102.37 77.24 41.34 18.88 93.45 17.3 125.4 49.63 16.37 16.55 24.52 39.79 27.15 62.91a162.78 162.78 0 0 1-33.53 117.7c-23.51 29.77-59.24 55.11-61.51 93Z" opacity=".18"></path><path fill="#68e1fd" d="M348.44 568.7c-8.34 9-20.8 13.18-33 14.76s-24.59 1-36.83 2.19c-9.51 1-26.62 8.47-36.16 9.12-90.93 6.34-141.42-20.94-138.8-21.22 6.83 2 15.63.51 29.22.16 60.35-1.54 156.27 10.72 215.57-5.01Z" opacity=".18"></path><rect width="545.05" height="378.56" x="60.12" y="35.01" fill="#68e1fd" rx="24.86"></rect><path fill="url(#e)" d="M297.54 393.81c-5.41-6.24-12.26-12.74-11.84-21 .31-6.11 4.61-11.17 8.7-15.72l9.6-10.7 12.83-14.28A81.49 81.49 0 0 1 327.09 322a11.69 11.69 0 0 0 2.7-2.5 9.9 9.9 0 0 0 1.07-2.28 105.81 105.81 0 0 0 6.3-35.23c0-2.93 0-6.18 2-8.31 1.39-1.48 3.46-2.07 5.42-2.58 4.31-1.13 8.73-2.19 13.18-1.94s9 2 11.73 5.51c3.25 4.22 3.28 10 3.17 15.31s-14.78 12.81-14.89 18.12c0 1.38 10.06 1.59 11.33 2.12 6.68 2.81 10.56 14.31 11.18 15.36 10.32 17.4 14.57 22.54 24.89 39.95 1.61 2.71 3.26 5.54 3.55 8.69s-.84 6.33-2.11 9.27a93.28 93.28 0 0 1-17.1 26.3 11.26 11.26 0 0 1-3.79 3c-4.12 1.71-8.89-1.46-13.21-.37 4.25-9.41 15.45-15.13 17.27-25.3 1-5.77-1.39-11.74-5.13-16.27S376 363 371.14 359.71q-1.89 13.13-3.79 26.26c-1 6.92-2 13.95-1.05 20.89.33 2.47.61 5.61-1.56 6.82a5.88 5.88 0 0 1-2.79.5q-21.3.21-42.57-.93c-4.69-.26-8.06 0-11.14-3.76-3.99-4.85-6.51-10.84-10.7-15.68Z" opacity=".19" transform="translate(-136.86 .17)"></path><path fill="url(#a)" d="M742 59.71v8.09H197v-8.09a24.88 24.88 0 0 1 24.87-24.87h495.29A24.87 24.87 0 0 1 742 59.71Z" transform="translate(-136.86 .17)"></path><path fill="none" stroke="#e4fbff" stroke-miterlimit="10" stroke-width="3.87" d="M235.09 87.36h124.27v62.66H235.09zM93.23 159.1h107.46v62.66H93.23zM447.58 104.79h107.46v62.66H447.58zM255.87 263.06h133.44v69.63H255.87zM445.94 222.3h105.02v69.63H445.94zM267.49 176.12h154.04v48.17H267.49zM294.8 150.03l19.87 27.12M200.69 193.35h66.8M445.94 133.43l-60.79 42.69M444.22 257.12l-51.45-32.83M330.03 224.29l-16.27 38.77"></path><path fill="url(#b)" d="M348.81 270.58a113.7 113.7 0 0 1 1.72 15.42 18.07 18.07 0 0 1-.34 5.78 6.42 6.42 0 0 1-3.53 4.37c-1.09.44-2.35.47-3.32 1.12a4.16 4.16 0 0 0-1.57 2.35 15.84 15.84 0 0 0 0 5.41c.13 1.81 0 3.78-1.12 5.19a6.77 6.77 0 0 1-3.35 2 18.1 18.1 0 0 1-9.38.39 3.15 3.15 0 0 1-1.37-.57 3.27 3.27 0 0 1-.88-1.53 87.39 87.39 0 0 1-2.74-10.58c-1.09-5-2.22-10.11-2.32-15.27s.93-10.48 3.83-14.74 7.9-7.3 13.05-7a24.7 24.7 0 0 1 8.22 2.5c2.16.98 2.65 2.84 3.1 5.16Z" transform="translate(-136.86 .17)"></path><path fill="#3f3d56" d="M211.95 263.68c.14-2.57-1.89-4.71-3.94-6.25a4.12 4.12 0 0 1-1-.93 7.69 7.69 0 0 1-.64-1.8c-.83-2.33-3.61-3.37-6.08-3.37s-4.91.75-7.38.68c-2-.05-4-.59-5.82.23a7.38 7.38 0 0 0-2.56 2.32 11.45 11.45 0 0 0-2.51 5c-.15.82-.14 1.67-.35 2.48a7.66 7.66 0 0 1-1.32 2.51c-2.58 3.54-6.34 6.5-7.26 10.78-.58 2.71-1.17 5.83.14 8.27 12.59 23.5 15.78 24.86 17.07 24.68s8.44-.52 9.19-9.51a5.46 5.46 0 0 0 .18-1.87 3.39 3.39 0 0 0-.9-1.3 11 11 0 0 1-2.18-3 4.06 4.06 0 0 1 .05-3.63 3.23 3.23 0 0 1 5.08-.34c.84-2.4-1.65-5.11-.63-7.44.62-1.41 2.34-2.1 2.94-3.53.79-1.89-.62-4.53.88-5.92a10.54 10.54 0 0 1 1.6-.92c.85-.52 1-1.23 1.45-2.05s.53-.75 1.44-1.22a4.64 4.64 0 0 0 2.55-3.87Z"></path><path fill="#68e1fd" d="M188.76 310.65s-17.87 4.34-20.29 10.15-22 23.93-21.51 31.14 13.93 16.35 13.93 16.35l10.28-10 4.78 77.78s19.58 5 34.76 0 17.79-8.73 17.79-8.73l-2.61-71.89 12.35 16.09 16.4-14.12s-24.2-39.43-28.32-41.83-22.58-5.19-22.58-5.19-8.11 4.92-14.98.25Z"></path><path fill="url(#f)" d="M325.62 310.48s-17.87 4.34-20.29 10.15-22 23.93-21.51 31.14 13.93 16.35 13.93 16.35l10.28-10 4.78 77.78s19.58 5 34.76 0 17.79-8.73 17.79-8.73l-2.61-71.89 12.35 16.09 16.4-14.12s-24.2-39.43-28.32-41.83-22.58-5.19-22.58-5.19-8.11 4.92-14.98.25Z" transform="translate(-136.86 .17)"></path><path fill="url(#g)" d="M283.82 351.77S271 369.14 270.66 372s34.67 45.16 34.67 45.16 2.64 9.43 7 10.77l-1.39-22.64s-19.06-31.67-21.39-31.17l6.77-7.08s-10.9-7.52-12.5-15.27Z" transform="translate(-136.86 .17)"></path><path fill="url(#h)" d="m375.1 371.35 4.78 6.72-15.19 30.59s-5.43 2.77-5.72 5.3 5.91 0 5.91 0l.48 13.19s6.69-7.3 9.74-13.19 21-32 21.78-35.24c1.45-5.81-8.59-18.73-8.59-18.73Z" transform="translate(-136.86 .17)"></path><path fill="#25233a" d="M175.95 436.05v141h16.24l7.43-107.69 6.52-1.19 11.67 108.87h12.63l-1.94-149.68s-21.22 7.39-52.55 8.69Z"></path><path fill="#68e1fd" d="M206.35 593.38a9.12 9.12 0 0 1-.07.91s-23.82 2.46-27.74.72-3.64-2.76-3.64-2.76l1.05-15.24h16.24c11.65 1.77 13.83 9.89 14.14 14.34v.1a14.11 14.11 0 0 1 .02 1.93ZM217.41 577l-1 15.25s-.29 1 3.64 2.76 27.74-.72 27.74-.72 2.15-14.82-14.09-17.29Z"></path><path fill="url(#c)" d="M343.21 593.21a9.12 9.12 0 0 1-.07.91s-23.82 2.46-27.74.72-3.64-2.76-3.64-2.76l1.05-15.24h16.24c11.65 1.77 13.83 9.89 14.14 14.34v.1a14.11 14.11 0 0 1 .02 1.93Z" transform="translate(-136.86 .17)"></path><path fill="url(#i)" d="m354.27 576.83-1 15.25s-.29 1 3.64 2.76 27.74-.72 27.74-.72 2.15-14.82-14.09-17.29Z" transform="translate(-136.86 .17)"></path><circle cx="83.38" cy="52.5" r="5.64" fill="url(#d)"></circle><circle cx="104.06" cy="52.5" r="5.64" fill="url(#j)"></circle><circle cx="124.74" cy="52.5" r="5.64" fill="url(#k)"></circle><path fill="url(#l)" d="M343.21 593.21a9.12 9.12 0 0 1-.07.91s-23.82 2.46-27.74.72-3.64-2.76-3.64-2.76l1.05-15.24 8.25-.2-.05.2-.39 1.3s-2.17 9.15 0 11.62 22.11 1.45 22.57 1.42v.1Z" transform="translate(-136.86 .17)"></path><path fill="url(#m)" d="M384.68 593.21a9.12 9.12 0 0 1-.07.91s-23.82 2.46-27.74.72-3.63-2.76-3.63-2.76l1-15.24 8.26-.2-.06.2-.39 1.3s-2.17 9.15 0 11.62 22.11 1.45 22.57 1.42v2Z" transform="translate(-136.86 .17)"></path></svg>