<?xml version="1.0" encoding="utf-8"?>
<!-- Generator: Adobe Illustrator 16.0.0, SVG Export Plug-In . SVG Version: 6.00 Build 0)  -->
<!DOCTYPE svg PUBLIC "-//W3C//DTD SVG 1.1//EN" "http://www.w3.org/Graphics/SVG/1.1/DTD/svg11.dtd">
<svg version="1.1" id="Layer_1" xmlns="http://www.w3.org/2000/svg" xmlns:xlink="http://www.w3.org/1999/xlink" x="0px" y="0px"
	 width="512px" height="512px" viewBox="#ffffff" enable-background="#ffffff" xml:space="preserve">
<text transform="matrix(1 0 0 1 168.783 543.8093)" fill="#FFFFff" font-family="'Verdana-Bold'" font-size="20">simpleicon.com</text>
<text transform="matrix(1 0 0 1 9.1931 567.8093)" fill="#FFFFff" font-family="'Verdana'" font-size="20">Collection Of Flat Icon, Symbols And Glyph Icons</text>
<g>
	<g>
		<g>
			<path fill="#ffffff" d="M256,462c-113.589,0-206-92.408-206-206S142.411,50,256,50c113.592,0,206,92.408,206,206S369.592,462,256,462z
				 M256,74.719c-99.957,0-181.281,81.324-181.281,181.281S156.043,437.281,256,437.281S437.281,355.957,437.281,256
				S355.957,74.719,256,74.719z"/>
		</g>
		<g>
			<path fill="#ffffff" d="M305.65,162.088c-39.576-39.585-103.981-39.585-143.562,0c-39.578,39.581-39.578,103.985,0,143.562
				c38.22,38.228,99.59,39.535,139.402,3.928l8.047,8.047c-2.007,5.135-0.951,11.175,3.184,15.319l42.472,42.473
				c5.588,5.582,14.641,5.577,20.213,0c5.588-5.583,5.588-14.636,0-20.218l-42.462-42.468c-4.145-4.145-10.189-5.19-15.314-3.184
				l-8.052-8.052C345.185,261.677,343.877,200.305,305.65,162.088z M174.219,293.523c-32.894-32.892-32.894-86.408,0-119.305
				c32.889-32.897,86.413-32.892,119.305,0c32.887,32.886,32.887,86.408,0,119.305C260.632,326.42,207.111,326.42,174.219,293.523z"
				/>
			<path d="M194.266,193.526c14.363-14.363,31.061-24.804,48.618-31.302c-19.891-1.131-41.2,6.614-57.543,22.954
				c-16.574,16.577-24.289,38.248-22.886,58.38C168.9,225.487,179.507,208.277,194.266,193.526z"/>
		</g>
	</g>
</g>
</svg>
